<svg xmlns="http://www.w3.org/2000/svg" viewBox="0 0 24 24" fill="none" stroke="currentColor" stroke-width="2" stroke-linecap="round" stroke-linejoin="round">
  <path d="M12 2C10.5 2 9 2.5 8 3.5C6.5 5 6 7 6 9C6 11 6.5 13 8 14.5C9 15.5 10.5 16 12 16C13.5 16 15 15.5 16 14.5C17.5 13 18 11 18 9C18 7 17.5 5 16 3.5C15 2.5 13.5 2 12 2Z" />
  <path d="M12 22C10.5 22 9 21.5 8 20.5C6.5 19 6 17 6 15C6 13 6.5 11 8 9.5C9 8.5 10.5 8 12 8C13.5 8 15 8.5 16 9.5C17.5 11 18 13 18 15C18 17 17.5 19 16 20.5C15 21.5 13.5 22 12 22Z" />
</svg>